<svg width="512" height="512" viewBox="0 0 512 512" fill="none" xmlns="http://www.w3.org/2000/svg">
<g clip-path="url(#clip0)">
<rect width="512" height="512" rx="20" fill="white"/>
<path d="M67 285.95V433.08L260.351 491.652L443.907 433.08V383.903" stroke="black" stroke-width="8"/>
<mask id="mask0" style="mask-type:alpha" maskUnits="userSpaceOnUse" x="67" y="12" width="446" height="480">
<path d="M67 433.08V12H512.475V433.08H443.908L260.351 491.652L67 433.08Z" fill="#C4C4C4"/>
</mask>
<g mask="url(#mask0)">
<path fill-rule="evenodd" clip-rule="evenodd" d="M322.147 224.102L360.817 199.287V54.1898C360.817 53.1559 363.476 48.9683 365.902 47.7068C368.093 49.0407 370.391 52.6699 370.391 54.1898V193.083L409.922 167.647C417.464 162.746 413.794 174.885 409.092 177.987L370.412 202.854V229.437C370.412 230.947 368.115 234.607 365.923 235.92C363.498 234.659 360.838 230.451 360.838 229.437V209.006L322.445 233.697C310.637 241.37 315.041 228.734 322.147 224.102Z" fill="black"/>
<path fill-rule="evenodd" clip-rule="evenodd" d="M424.54 275.771C416.87 273.869 399.179 273.828 391.466 275.606L407.625 186.064L408.444 185.682L424.54 275.771ZM430.252 286.204C432.773 284.343 434.507 282.141 434.241 279.814C431.476 256.291 414.699 196.321 408.934 172.55L407.253 173.326C404.306 185.299 380.807 275.937 381.402 279.825C381.402 282.709 383.636 285.346 387.328 287.414C392.136 290.454 399.508 292.439 408.306 292.263C419.55 292.067 426.454 289.658 430.252 286.204Z" fill="black"/>
<path fill-rule="evenodd" clip-rule="evenodd" d="M347.428 323.583C339.62 321.649 322.535 321.608 314.695 323.417L330.652 232.283L331.481 231.901L347.438 323.583H347.428ZM353.694 334.202C356.268 332.32 358.034 330.066 357.757 327.708C354.949 303.761 337.864 242.726 332.003 218.531L330.301 219.327C327.301 231.518 303.376 323.758 303.982 327.739C303.982 330.665 306.259 333.354 310.014 335.463C314.907 338.565 322.418 340.581 331.364 340.395C342.811 340.168 349.832 337.717 353.694 334.202Z" fill="black"/>
<path fill-rule="evenodd" clip-rule="evenodd" d="M218.237 121.99C228.524 118.257 239.428 115.59 249.758 115.486C258.077 115.414 266.385 117.875 274.608 120.656L270.842 132.102C255.46 129.972 242.247 129.755 220.918 134.46L218.237 121.99Z" fill="black"/>
<path fill-rule="evenodd" clip-rule="evenodd" d="M212.057 133.528C219.418 134.955 218.535 143.247 214.121 147.817C200.419 162.034 206.738 171.599 223.333 166.594C213.185 175.393 202.44 171.764 202.206 163.865C201.919 154.135 208.44 150.971 212.419 145.925C214.738 142.989 217.195 139.07 212.057 133.518V133.528ZM211.929 119.207C212.622 121.931 213.591 124.58 214.823 127.117L214.419 126.931C206.376 128.803 204.036 138.543 205.908 146.318C195.621 153.287 192.728 164.444 201.525 173.791C204.557 177.017 209.397 178.423 213.802 178.423C223.237 178.423 226.759 167.597 229.695 161.569C233.61 153.535 216.025 132.618 222.844 119.58C226.503 113.521 232.663 109.736 237.737 106.624C241.992 104.029 245.439 96.1912 246.248 93.5236C247.843 95.0746 250.226 103.046 252.971 104.556C254.098 105.166 255.364 105.776 256.705 106.428C264.29 110.088 267.439 111.597 269.875 116.178C272.8 121.658 272.204 126.021 270.758 131.243C268.449 139.391 265.215 147.518 259.439 152.563C259.354 153.266 259.098 151.354 259.098 156.772C259.098 162.19 266.758 175.073 276.194 175.073C285.63 175.073 293.278 166.873 293.278 156.772C293.318 153.744 292.603 150.753 291.195 148.052C289.787 145.351 287.728 143.022 285.193 141.262C285.467 140.141 285.607 138.992 285.608 137.84C285.657 135.28 284.963 132.759 283.607 130.565C282.25 128.371 280.286 126.592 277.938 125.432C278.682 124.191 279.346 122.906 279.928 121.586C281.431 117.928 282.112 114.001 281.928 110.067C281.814 107.72 281.382 105.397 280.64 103.16C280.225 101.919 279.715 95.0125 279.098 93.8545C276.045 88.2494 271.395 83.6184 265.704 80.5163C259.864 77.3006 252.492 75.3464 246.418 79.0894C242.348 77.5002 237.892 77.0908 233.588 77.9106C229.624 78.7258 225.927 80.4764 222.823 83.0081C213.95 90.0805 216.11 93.6063 212.94 102.964C211.133 108.219 210.792 113.845 211.951 119.269L211.929 119.207ZM276.598 126.828C283.385 135.492 274.683 142.606 274.268 147.187C274.055 149.565 275.417 150.351 277.066 150.588C299.725 153.804 287.981 171.268 281.874 168.073C282.183 168.073 285.002 166.811 285.789 165.105C291.002 153.732 272.194 157.65 270.736 150.33C270.397 148.462 270.615 146.539 271.364 144.788C274.449 137.912 280.651 133.91 276.534 126.931L276.598 126.828V126.828ZM246.471 82.8634C252.035 96.3877 258.694 103.439 272.406 109.54C262.885 107.265 248.45 100.441 246.471 82.8634ZM241.918 92.8825C241.312 104.815 219.163 112.673 217.057 112.197C227.274 108.54 235.997 101.764 241.918 92.8825Z" fill="black"/>
<path fill-rule="evenodd" clip-rule="evenodd" d="M277.316 298.965C289.901 340.128 291.965 382.551 293.497 399.601C297.507 378.178 296.443 351.48 291.571 322.964C296.614 340.438 303.667 359.866 301.848 381.569C295.752 454.061 284.529 518.167 279.284 589.004C277.635 611.4 279.071 645.81 291.454 673.262C286.21 640.858 287.39 592.323 291.071 565.419C297.071 521.61 312.592 424.799 310.432 378.591C308.539 337.842 289.763 301.395 294.178 274.998C289.988 280.397 287.501 286.863 287.018 293.609V293.04C277.582 286.837 241.072 281.077 217.679 292.627C218.413 288.308 218.889 283.951 219.105 279.578C235.956 272.775 247.296 263.665 256.083 252.147C257.444 251.992 258.806 251.847 260.146 251.723C254.136 268.587 240.849 275.846 239.211 277.51C242.679 278.255 268.625 278.017 287.156 251.072C291.846 249.273 295.938 246.258 298.986 242.355C297.411 251.661 295.518 259.095 296.156 258.661C304.73 250.865 309.783 225.481 311.252 218.502C330.4 186.831 358.527 176.233 373.92 163.763C388.165 152.224 401.111 85.4916 383.739 50.0988C382.295 45.9559 380.137 42.0819 377.356 38.6425C374.899 35.5405 371.963 30.7636 365.857 30.3707C359.071 29.8475 352.247 30.0834 345.517 31.0738C333.677 33.028 348.091 61.4622 350.304 62.827C354.825 58.8359 343.921 39.0974 350.357 38.5494C363.857 37.4017 369.452 38.4357 371.633 41.734C377.048 49.8507 382.197 59.8905 383.707 69.5271C388.282 98.6748 375.197 154.189 369.654 157.042C364.889 159.493 358.335 163.908 353.325 166.224C336.921 173.824 309.486 200.459 297.624 214.821C301.879 225.16 299.826 235.066 292.592 241.177C283.571 248.807 268.125 247.949 256.742 239.822C260.757 233.662 263.973 227.042 266.316 220.115C261.444 225.109 257.806 232.605 252.423 238.219C247.498 243.389 233.658 252.53 217.935 245.364C201.329 237.785 203.669 210.819 197.914 207.024L197.808 206.962C197.563 222.472 194.116 246.491 189.361 253.15C181.861 263.665 169.659 277.355 161.755 291.221C161.28 300.78 159.366 310.221 156.075 319.241C151.465 330.923 146.235 342.363 140.405 353.517C135.958 362.141 131.128 371.343 125.671 379.418C115.256 396.438 126.735 410.158 127.469 411.978C131.724 400.522 121.799 391.971 128.458 381.693C133.777 373.504 139.671 366.907 145.394 357.219C156.8 337.952 165.976 317.517 172.755 296.287C178.489 277.986 191.191 264.761 198.222 256.821C205.541 248.549 205.201 253.047 207.148 260.45C213.626 285.007 213.999 294.385 209.509 303.97C207.18 308.467 201.073 319.014 197.191 325.125C174.234 361.314 180.808 422.576 186.318 466.013C193.765 524.867 227.264 631.211 209.637 686.559C259.997 676.219 256.04 652.242 264.678 559.732L237.264 614.181C252.604 564.623 261.817 523.006 263.934 490.601C247.349 545.215 239.041 559.629 226.605 594.143C237.785 557.561 249.285 535.631 258.178 471.245C252.115 409.073 259.338 385.612 273.88 341.927C267.676 357.191 259.925 371.818 250.742 385.591C246.87 391.288 236.828 413.364 236.126 418.875C233.945 379.584 271.55 343.012 252.083 300.258C250.03 352.99 207.541 385.043 206.924 449.832L201.999 422.359C200.935 384.909 221.435 332.838 236.615 298.624C217.009 311.807 196.871 350.188 188.01 389.613C187.85 372.853 192.35 355.596 199.031 340.065C206.478 322.736 211.722 310.339 214.988 301.416C230.073 296.463 256.2 294.767 277.316 298.903V298.965ZM247.508 142.836C248.286 142.604 249.09 142.466 249.902 142.422C250.775 142.378 251.65 142.461 252.498 142.67C253.979 143.048 255.373 143.697 256.604 144.583C255.593 145.296 255.54 145.969 253.998 145.172C252.875 144.542 251.603 144.207 250.306 144.2C249.012 144.229 247.744 144.555 246.604 145.152C244.828 146.01 244.913 145.741 243.955 144.5C245.058 143.794 246.253 143.234 247.508 142.836V142.836ZM259.753 154.954C256.966 157.253 253.45 158.553 249.796 158.635C244.285 158.686 238.594 155.533 232.775 149.381C241.849 154.923 244.477 155.678 246.04 155.936C247.449 156.134 248.873 156.217 250.296 156.184C255.998 156.05 258.327 152.679 261.997 148.678C266.125 144.149 268.625 141.522 270.614 135.236C270.678 141.44 268.285 144.955 264.54 149.629V150.384C263.58 154.803 263.109 159.309 263.136 163.825C264.051 173.431 275.114 173.627 283.125 172.728C288.029 168.912 293.316 166.265 298.38 163.422C310.496 156.66 341.644 151.252 346.58 146.579C354.58 142.184 367.25 91.5714 360.867 55.6719C360.761 55.9098 364.42 49.1889 366.761 55.8787C374.548 78.2228 361.612 140.085 348.166 149.039C333.591 157.787 312.677 158.904 272.316 184.898C274.745 180.779 277.87 177.088 281.561 173.979C274.221 176.212 264.71 175.013 260.88 169.957C258.232 166.441 258.976 159.358 259.817 154.902L259.753 154.954ZM111.48 382.138C110.416 383.823 103.757 390.099 102.735 392.002C101.257 398.051 100.182 403.841 103.544 412.743C104.512 415.297 108.586 415.359 114.182 414.811C116.895 414.542 125.724 413.25 125.277 411.099C127.288 411.234 127.331 413.839 126.565 415.514C123.852 421.346 105.289 422.132 102.214 419.65C94.2675 413.167 94.6611 399.519 98.5334 387.98C100.076 385.86 104.991 382.324 105.884 380.638C108.459 375.717 111.693 362.513 113.565 355.823C118.437 338.256 132.267 287.995 140.5 279.041C163.404 254.153 164.191 210.292 177.999 194.772C184.574 187.648 197.318 184.918 207.212 180.999C227.424 172.976 229.924 167.744 225.2 147.488C227.902 151.106 229.85 155.201 230.934 159.545C232.626 166.989 230.743 174.485 223.488 180.948C220.294 183.649 216.506 185.602 212.414 186.655C213.339 186.831 214.265 187.017 215.169 187.234C226.413 189.881 236.636 192.539 248.147 194.731L292.092 184.598L251.242 202.175C246.987 203.995 232.668 198.804 224.871 195.744C220.456 194.276 216.137 192.477 211.637 191.35L251.083 215.906L221.296 205.846C217.243 204.553 205.52 197.874 195.765 191.484C194.593 191.852 193.445 192.291 192.329 192.797C189.754 194.091 187.377 195.726 185.265 197.657C166.34 217.178 168.01 257.182 148.447 281.119C145.479 286.961 141.575 293.475 137.373 300.34C129.671 312.913 124.214 334.037 120.001 351.801C119.501 353.859 111.831 381.548 111.48 382.138Z" fill="black"/>
<path fill-rule="evenodd" clip-rule="evenodd" d="M160.046 425.722L159.972 427.79C145.355 426.383 130.451 425.66 115.835 424.264L48.1447 717.26C46.3044 725.532 31.2303 747.121 15.4221 772.629C12.7201 749.396 10.6776 719.38 13.2201 712.793L95.8032 420.976C83.346 411.567 69.3783 409.023 56.9318 399.624L57.1339 397.608L160.046 425.753V425.722ZM101.346 425.391L84.6119 476.273L27.9218 686.499C21.9858 708.512 21.7305 739.573 22.3156 753.976L59.9955 586.669L105.505 426.818L101.346 425.391Z" fill="black"/>
</g>
</g>
<defs>
<clipPath id="clip0">
<rect width="512" height="512" rx="20" fill="white"/>
</clipPath>
</defs>
</svg>
