<?xml version="1.0" encoding="UTF-8" standalone="no"?>
<svg
   width="64"
   height="64"
   viewBox="0 0 64 64"
   fill="none"
   version="1.1"
   id="svg13"
   sodipodi:docname="up-arrow.svg"
   inkscape:version="1.1 (c68e22c387, 2021-05-23)"
   xmlns:inkscape="http://www.inkscape.org/namespaces/inkscape"
   xmlns:sodipodi="http://sodipodi.sourceforge.net/DTD/sodipodi-0.dtd"
   xmlns="http://www.w3.org/2000/svg"
   xmlns:svg="http://www.w3.org/2000/svg">
  <sodipodi:namedview
     id="namedview15"
     pagecolor="#ffffff"
     bordercolor="#666666"
     borderopacity="1.0"
     inkscape:pageshadow="2"
     inkscape:pageopacity="0.0"
     inkscape:pagecheckerboard="0"
     showgrid="false"
     inkscape:zoom="13.015625"
     inkscape:cx="32"
     inkscape:cy="31.961585"
     inkscape:window-width="1920"
     inkscape:window-height="1011"
     inkscape:window-x="0"
     inkscape:window-y="32"
     inkscape:window-maximized="1"
     inkscape:current-layer="svg13" />
  <g
     clip-path="url(#clip0)"
     id="g6">
    <rect
       width="64"
       height="64"
       rx="4"
       fill="#052B3E"
       id="rect2"
       style="fill:#ffffff;fill-opacity:1" />
    <path
       fill-rule="evenodd"
       clip-rule="evenodd"
       d="M31.9999 48C31.4695 48 30.9608 47.7893 30.5857 47.4142C30.2106 47.0391 29.9999 46.5304 29.9999 46V22.828L21.4159 31.416C21.23 31.602 21.0092 31.7495 20.7663 31.8501C20.5233 31.9507 20.2629 32.0025 19.9999 32.0025C19.7369 32.0025 19.4765 31.9507 19.2336 31.8501C18.9906 31.7495 18.7699 31.602 18.5839 31.416C18.398 31.23 18.2505 31.0093 18.1498 30.7663C18.0492 30.5234 17.9974 30.263 17.9974 30C17.9974 29.737 18.0492 29.4766 18.1498 29.2337C18.2505 28.9907 18.398 28.77 18.5839 28.584L30.5839 16.584C30.7697 16.3977 30.9904 16.25 31.2334 16.1492C31.4764 16.0483 31.7368 15.9964 31.9999 15.9964C32.263 15.9964 32.5235 16.0483 32.7665 16.1492C33.0094 16.25 33.2301 16.3977 33.4159 16.584L45.4159 28.584C45.6019 28.77 45.7494 28.9907 45.85 29.2337C45.9506 29.4766 46.0024 29.737 46.0024 30C46.0024 30.263 45.9506 30.5234 45.85 30.7663C45.7494 31.0093 45.6019 31.23 45.4159 31.416C45.0404 31.7915 44.531 32.0025 43.9999 32.0025C43.7369 32.0025 43.4765 31.9507 43.2336 31.8501C42.9906 31.7495 42.7699 31.602 42.5839 31.416L33.9999 22.828V46C33.9999 46.5304 33.7892 47.0391 33.4141 47.4142C33.0391 47.7893 32.5303 48 31.9999 48Z"
       fill="white"
       id="path4"
       style="fill:#010101;fill-opacity:1" />
  </g>
  <defs
     id="defs11">
    <clipPath
       id="clip0">
      <rect
         x="64"
         y="64"
         width="64"
         height="64"
         rx="4"
         transform="rotate(-180 64 64)"
         fill="white"
         id="rect8" />
    </clipPath>
  </defs>
</svg>
