<svg width="50" height="50" viewBox="0 0 50 50" fill="none" xmlns="http://www.w3.org/2000/svg">
<path d="M45.8333 6.25H33.3333C31.1232 6.25 29.0036 7.12797 27.4408 8.69078C25.878 10.2536 25 12.3732 25 14.5833V43.75C25 42.0924 25.6585 40.5027 26.8306 39.3306C28.0027 38.1585 29.5924 37.5 31.25 37.5H45.8333V6.25Z" stroke="#FFCB12" stroke-width="3" stroke-linecap="square"/>
<path d="M4.16669 6.25H16.6667C18.8768 6.25 20.9964 7.12797 22.5592 8.69078C24.122 10.2536 25 12.3732 25 14.5833V43.75C25 42.0924 24.3415 40.5027 23.1694 39.3306C21.9973 38.1585 20.4076 37.5 18.75 37.5H4.16669V6.25Z" stroke="#FFCB12" stroke-width="3" stroke-linecap="square"/>
</svg>
