<svg width="202" height="218" viewBox="0 0 202 218" fill="none" xmlns="http://www.w3.org/2000/svg">
<path d="M1 123.607V189.993L88.2409 216.421L171.062 189.993V167.804" stroke="white" stroke-width="1.43094"/>
<mask id="mask0_312:1313" style="mask-type:alpha" maskUnits="userSpaceOnUse" x="1" y="0" width="201" height="217">
<path d="M1 189.993V0H202V189.993H171.062L88.2409 216.421L1 189.993Z" fill="#C4C4C4"/>
</mask>
<g mask="url(#mask0_312:1313)">
<path fill-rule="evenodd" clip-rule="evenodd" d="M116.124 95.7016L133.572 84.5048V19.0365C133.572 18.5699 134.772 16.6805 135.866 16.1113C136.855 16.7132 137.891 18.3507 137.891 19.0365V81.7057L155.728 70.229C159.131 68.0176 157.475 73.4947 155.354 74.8943L137.901 86.1144V98.1089C137.901 98.79 136.864 100.442 135.876 101.034C134.781 100.465 133.581 98.5661 133.581 98.1089V88.8902L116.258 100.031C110.93 103.493 112.917 97.7917 116.124 95.7016Z" fill="white"/>
<path fill-rule="evenodd" clip-rule="evenodd" d="M162.323 119.014C158.863 118.156 150.88 118.137 147.4 118.94L154.692 78.5382L155.061 78.3656L162.323 119.014ZM164.901 123.722C166.039 122.882 166.821 121.888 166.701 120.839C165.453 110.225 157.884 83.1662 155.282 72.4407L154.524 72.7906C153.194 78.193 142.591 119.089 142.86 120.843C142.86 122.145 143.868 123.335 145.533 124.268C147.703 125.639 151.029 126.535 154.999 126.456C160.072 126.367 163.187 125.28 164.901 123.722Z" fill="white"/>
<path fill-rule="evenodd" clip-rule="evenodd" d="M127.53 140.587C124.007 139.715 116.299 139.696 112.761 140.513L119.961 99.3926L120.335 99.22L127.535 140.587H127.53ZM130.358 145.379C131.519 144.53 132.316 143.512 132.191 142.449C130.924 131.644 123.215 104.105 120.57 93.1877L119.802 93.547C118.449 99.0474 107.654 140.667 107.927 142.463C107.927 143.783 108.955 144.996 110.649 145.948C112.857 147.347 116.246 148.257 120.282 148.173C125.447 148.071 128.615 146.965 130.358 145.379Z" fill="white"/>
<path fill-rule="evenodd" clip-rule="evenodd" d="M69.2388 49.6283C73.8803 47.9441 78.8002 46.7405 83.461 46.6938C87.2145 46.6612 90.9632 47.7715 94.6736 49.0265L92.9744 54.191C86.0337 53.2299 80.0722 53.1319 70.4484 55.2547L69.2388 49.6283Z" fill="white"/>
<path fill-rule="evenodd" clip-rule="evenodd" d="M66.4503 54.8343C69.7719 55.4781 69.3735 59.2197 67.3815 61.2817C61.1992 67.6965 64.0503 72.0119 71.5382 69.7539C66.9591 73.7241 62.1112 72.0866 62.0056 68.5223C61.876 64.1322 64.8183 62.7046 66.6135 60.428C67.6599 59.103 68.7687 57.3349 66.4503 54.8296V54.8343ZM66.3927 48.3728C66.7051 49.6016 67.1425 50.7971 67.6983 51.9418L67.5159 51.8578C63.8871 52.7022 62.8312 57.0969 63.6759 60.6053C59.0344 63.7497 57.7288 68.7836 61.6984 73.001C63.0664 74.4566 65.2503 75.0911 67.2375 75.0911C71.495 75.0911 73.0838 70.2065 74.4086 67.4866C76.175 63.8616 68.2407 54.4237 71.3174 48.5407C72.9686 45.8069 75.7478 44.0994 78.0373 42.6951C79.9573 41.5241 81.5125 37.9878 81.8773 36.7842C82.5973 37.484 83.6724 41.0809 84.9108 41.762C85.4196 42.0373 85.9908 42.3126 86.5956 42.6065C90.0179 44.258 91.4387 44.9391 92.5379 47.0059C93.8579 49.4785 93.5891 51.4472 92.9363 53.8032C91.8947 57.4795 90.4355 61.1464 87.8292 63.4231C87.7908 63.7403 87.6756 62.8773 87.6756 65.3219C87.6756 67.7665 91.1315 73.5795 95.389 73.5795C99.6466 73.5795 103.098 69.8799 103.098 65.3219C103.116 63.9559 102.793 62.6061 102.158 61.3875C101.523 60.1689 100.594 59.1178 99.4498 58.3239C99.5734 57.8179 99.6362 57.2997 99.637 56.7797C99.6588 55.6249 99.3458 54.4874 98.7338 53.4974C98.1218 52.5074 97.2355 51.7048 96.1762 51.1813C96.5116 50.6212 96.8114 50.0416 97.0738 49.4458C97.752 47.7957 98.0597 46.0237 97.9762 44.2487C97.9252 43.1895 97.7299 42.1415 97.3954 41.1322C97.2082 40.5724 96.9778 37.456 96.6994 36.9334C95.3222 34.4044 93.2241 32.3149 90.6563 30.9152C88.0212 29.4643 84.6948 28.5825 81.9541 30.2714C80.1179 29.5543 78.1073 29.3696 76.1654 29.7395C74.3766 30.1073 72.7084 30.8972 71.3078 32.0395C67.3047 35.2306 68.2791 36.8215 66.8487 41.0436C66.0337 43.4146 65.8796 45.9531 66.4023 48.4008L66.3927 48.3728ZM95.5714 51.8111C98.6338 55.7207 94.7075 58.9304 94.5203 60.9971C94.4243 62.0702 95.0387 62.4247 95.7826 62.532C106.006 63.9829 100.707 71.8627 97.9522 70.4211C98.0914 70.4211 99.3634 69.8519 99.7186 69.0821C102.071 63.9503 93.5843 65.7184 92.9267 62.4154C92.7736 61.5727 92.8719 60.705 93.2099 59.9148C94.6019 56.8124 97.4002 55.0069 95.5427 51.8578L95.5714 51.8111ZM81.9781 31.9742C84.4884 38.0764 87.4932 41.2582 93.6803 44.0107C89.3843 42.9844 82.8708 39.9053 81.9781 31.9742ZM79.9237 36.4949C79.6501 41.8787 69.6567 45.4243 68.7063 45.2097C73.3164 43.5598 77.2521 40.5021 79.9237 36.4949Z" fill="white"/>
<path fill-rule="evenodd" clip-rule="evenodd" d="M95.8951 129.48C101.573 148.052 102.505 167.194 103.196 174.887C105.005 165.221 104.525 153.175 102.327 140.308C104.602 148.192 107.785 156.958 106.964 166.751C104.213 199.459 99.1495 228.384 96.7831 260.346C96.0391 270.452 96.6871 285.978 102.274 298.364C99.9079 283.743 100.441 261.844 102.101 249.705C104.809 229.938 111.812 186.257 110.837 165.407C109.983 147.021 101.511 130.576 103.503 118.666C101.613 121.102 100.491 124.019 100.273 127.063V126.807C96.0151 124.007 79.5418 121.409 68.9868 126.62C69.318 124.671 69.5327 122.705 69.63 120.732C77.233 117.662 82.3497 113.552 86.3145 108.355C86.9289 108.285 87.5433 108.22 88.1481 108.164C85.4361 115.773 79.441 119.048 78.7018 119.799C80.2666 120.135 91.9736 120.028 100.335 107.87C102.451 107.059 104.297 105.698 105.673 103.937C104.962 108.136 104.108 111.49 104.396 111.294C108.265 107.777 110.545 96.3233 111.207 93.1742C119.847 78.8844 132.538 74.1024 139.483 68.4761C145.91 63.2696 151.752 33.1597 143.914 17.1903C143.262 15.321 142.288 13.573 141.034 12.0211C139.925 10.6215 138.6 8.46615 135.845 8.28887C132.783 8.05279 129.704 8.15924 126.667 8.60611C121.325 9.48785 127.829 22.3175 128.827 22.9333C130.867 21.1325 125.947 12.2264 128.851 11.9791C134.943 11.4613 137.467 11.9278 138.451 13.416C140.894 17.0783 143.218 21.6083 143.899 25.9564C145.963 39.1079 140.059 64.156 137.558 65.4436C135.408 66.5493 132.451 68.5414 130.191 69.5864C122.789 73.0154 110.41 85.0333 105.058 91.5134C106.978 96.1787 106.052 100.648 102.788 103.405C98.7175 106.848 91.748 106.461 86.6121 102.794C88.4237 100.015 89.8747 97.0278 90.932 93.902C88.7336 96.1554 87.0921 99.5377 84.6633 102.071C82.4409 104.404 76.1962 108.528 69.102 105.295C61.6093 101.875 62.6653 89.7079 60.0685 87.9958L60.0205 87.9678C59.9101 94.9657 58.3549 105.803 56.2094 108.808C52.8254 113.552 47.3199 119.729 43.7536 125.985C43.5389 130.299 42.6754 134.558 41.1904 138.628C39.1107 143.899 36.7508 149.061 34.1201 154.094C32.1138 157.985 29.9346 162.137 27.4722 165.781C22.7731 173.46 27.9522 179.651 28.2834 180.472C30.2034 175.302 25.7251 171.444 28.7298 166.807C31.1298 163.112 33.7889 160.136 36.3713 155.764C41.5177 147.071 45.658 137.85 48.7167 128.271C51.3038 120.014 57.035 114.047 60.2077 110.464C63.5101 106.732 63.3565 108.761 64.2348 112.101C67.158 123.182 67.326 127.413 65.3004 131.738C64.2492 133.767 61.4941 138.526 59.7421 141.283C49.3839 157.612 52.3502 185.254 54.8366 204.853C58.1965 231.408 73.3115 279.39 65.358 304.364C88.0809 299.698 86.2953 288.88 90.1928 247.139L77.8234 271.706C84.7449 249.346 88.9016 230.568 89.8568 215.947C82.3737 240.589 78.625 247.092 73.0139 262.665C78.0586 246.159 83.2473 236.264 87.2601 207.213C84.5241 179.161 87.7833 168.575 94.3448 148.864C91.5454 155.751 88.0483 162.351 83.9049 168.566C82.1578 171.136 77.6266 181.097 77.3098 183.583C76.3258 165.855 93.2936 149.354 84.5097 130.063C83.5833 153.856 64.4124 168.318 64.134 197.551L61.9117 185.156C61.4317 168.258 70.6811 144.763 77.5306 129.326C68.6844 135.274 59.5981 152.592 55.5998 170.381C55.5278 162.818 57.5581 155.032 60.5725 148.024C63.9324 140.205 66.2988 134.612 67.7724 130.585C74.5787 128.351 86.3673 127.586 95.8951 129.452V129.48ZM82.4457 59.0335C82.7967 58.9292 83.1593 58.8665 83.5257 58.8469C83.9197 58.8269 84.3145 58.8646 84.6969 58.9588C85.3654 59.1292 85.9943 59.4221 86.5497 59.8219C86.0937 60.1438 86.0697 60.4471 85.3737 60.0878C84.8673 59.8032 84.2931 59.6521 83.7081 59.6493C83.1243 59.6623 82.5519 59.8094 82.0378 60.0785C81.2362 60.4657 81.2746 60.3444 80.8426 59.7846C81.3401 59.4659 81.8793 59.2133 82.4457 59.0335ZM87.9705 64.5012C86.7128 65.5387 85.1268 66.125 83.4777 66.1621C80.9914 66.1854 78.4234 64.7625 75.7979 61.9866C79.8922 64.4872 81.0778 64.8278 81.7834 64.9444C82.419 65.0337 83.0612 65.0712 83.7033 65.0564C86.2761 64.9958 87.3273 63.4749 88.9832 61.6694C90.8456 59.626 91.9736 58.441 92.8712 55.6045C92.9 58.4037 91.82 59.9899 90.1304 62.0986V62.4392C89.6972 64.433 89.4847 66.4663 89.4968 68.5041C89.9096 72.8382 94.9016 72.9268 98.5159 72.5209C100.729 70.7994 103.114 69.6051 105.399 68.3221C110.866 65.271 124.92 62.8311 127.147 60.7223C130.757 58.7396 136.474 35.9029 133.594 19.7049C133.546 19.8122 135.197 16.7797 136.253 19.7982C139.766 29.8799 133.93 57.7925 127.863 61.8327C121.287 65.7795 111.85 66.2834 93.6392 78.012C94.7351 76.1538 96.1452 74.4883 97.8103 73.0854C94.4984 74.0931 90.2072 73.5519 88.4792 71.2706C87.2841 69.6844 87.6201 66.4887 87.9993 64.4779L87.9705 64.5012ZM21.0691 167.008C20.5891 167.768 17.5844 170.6 17.1236 171.458C16.4564 174.187 15.9716 176.8 17.4884 180.817C17.9252 181.969 19.7636 181.997 22.2883 181.75C23.5123 181.629 27.4962 181.045 27.2946 180.075C28.2018 180.136 28.221 181.311 27.8754 182.067C26.6514 184.698 18.2756 185.053 16.8884 183.933C13.3029 181.008 13.4805 174.85 15.2276 169.643C15.9236 168.687 18.1412 167.091 18.5444 166.331C19.706 164.11 21.1651 158.153 22.0099 155.134C24.2083 147.208 30.4482 124.53 34.1633 120.49C44.4976 109.26 44.8528 89.47 51.0831 82.4674C54.0494 79.253 59.7997 78.0213 64.2636 76.2532C73.3835 72.6329 74.5115 70.2722 72.3803 61.1329C73.5991 62.765 74.478 64.6129 74.9675 66.5726C75.7307 69.9317 74.8811 73.314 71.6075 76.2298C70.1667 77.4486 68.4572 78.3296 66.6108 78.8051C67.0284 78.8844 67.446 78.9684 67.854 79.0663C72.9275 80.2607 77.5402 81.4596 82.7337 82.4487L102.562 77.8767L84.1305 85.8077C82.2105 86.6288 75.7499 84.2868 72.2315 82.9059C70.2395 82.2434 68.2908 81.4317 66.2604 80.9231L84.0585 92.0033L70.6187 87.4639C68.79 86.8807 63.5005 83.867 59.0989 80.9838C58.57 81.1499 58.0522 81.3478 57.5485 81.5763C56.3867 82.16 55.3141 82.898 54.3614 83.769C45.8223 92.5771 46.5759 110.627 37.7489 121.427C36.4097 124.063 34.6481 127.002 32.7521 130.1C29.277 135.773 26.8146 145.304 24.9139 153.319C24.6883 154.248 21.2275 166.742 21.0691 167.008Z" fill="white"/>
<path fill-rule="evenodd" clip-rule="evenodd" d="M42.9828 186.673L42.9492 187.606C36.3541 186.971 29.6294 186.645 23.0343 186.015L-7.50759 318.216C-8.33797 321.948 -15.1395 331.689 -22.2721 343.199C-23.4913 332.716 -24.4129 319.172 -23.2657 316.2L13.9961 184.531C8.37536 180.286 2.07306 179.138 -3.54285 174.897L-3.45165 173.988L42.9828 186.687V186.673ZM16.4968 186.523L8.94655 209.481L-16.6322 304.336C-19.3106 314.269 -19.4258 328.284 -19.1618 334.782L-2.16047 259.293L18.3736 187.167L16.4968 186.523Z" fill="white"/>
</g>
</svg>
