<svg width="90" height="90" viewBox="0 0 90 90" fill="none" xmlns="http://www.w3.org/2000/svg">
<path d="M71.25 41.25H18.75C14.6079 41.25 11.25 44.6079 11.25 48.75V75C11.25 79.1421 14.6079 82.5 18.75 82.5H71.25C75.3921 82.5 78.75 79.1421 78.75 75V48.75C78.75 44.6079 75.3921 41.25 71.25 41.25Z" stroke="#FFCB12" stroke-width="3" stroke-linecap="square"/>
<path d="M26.25 41.25V26.25C26.25 21.2772 28.2254 16.5081 31.7417 12.9917C35.2581 9.47544 40.0272 7.5 45 7.5C49.9728 7.5 54.7419 9.47544 58.2583 12.9917C61.7746 16.5081 63.75 21.2772 63.75 26.25V41.25" stroke="#FFCB12" stroke-width="3" stroke-linecap="square"/>
</svg>
