<svg width="208" height="52" viewBox="0 0 208 52" fill="none" xmlns="http://www.w3.org/2000/svg">
<path d="M60.25 30V28.35C60.6333 28.3333 60.95 28.2833 61.2 28.2C61.4667 28.1167 61.6667 27.925 61.8 27.625C61.95 27.325 62.025 26.8417 62.025 26.175V16.6C62.025 16.15 62.0333 15.7167 62.05 15.3C62.0833 14.8833 62.1083 14.5667 62.125 14.35C61.8583 14.3667 61.525 14.3833 61.125 14.4C60.725 14.4 60.4333 14.4083 60.25 14.425V12.5C61.4 12.4833 62.55 12.475 63.7 12.475C64.8667 12.475 66.025 12.4667 67.175 12.45C69.175 12.4333 70.7583 12.8083 71.925 13.575C73.1083 14.325 73.6583 15.4667 73.575 17C73.525 17.7167 73.2083 18.4083 72.625 19.075C72.0417 19.725 71.1583 20.2083 69.975 20.525V20.55C71.6417 20.8167 72.8667 21.375 73.65 22.225C74.4333 23.0583 74.825 23.9917 74.825 25.025C74.825 26.1083 74.5583 27.025 74.025 27.775C73.5083 28.5083 72.7917 29.0667 71.875 29.45C70.9583 29.8167 69.9167 30 68.75 30H60.25ZM65.65 20.175L66.95 20.15C68 20.1167 68.725 19.7833 69.125 19.15C69.5417 18.5 69.75 17.7167 69.75 16.8C69.75 16.1333 69.6167 15.6167 69.35 15.25C69.0833 14.8667 68.75 14.5917 68.35 14.425C67.95 14.2583 67.5333 14.1833 67.1 14.2C66.8333 14.2 66.5917 14.2417 66.375 14.325C66.1583 14.4083 65.9833 14.6 65.85 14.9C65.7167 15.1833 65.65 15.65 65.65 16.3V20.175ZM65.55 28.225C65.9833 28.225 66.4 28.225 66.8 28.225C67.2 28.225 67.5917 28.2167 67.975 28.2C68.9917 28.15 69.7333 27.825 70.2 27.225C70.6667 26.625 70.9 25.8667 70.9 24.95C70.9 24.1833 70.7417 23.5833 70.425 23.15C70.1083 22.7 69.7 22.3833 69.2 22.2C68.7167 22.0167 68.2083 21.925 67.675 21.925C67.2583 21.925 66.9 21.925 66.6 21.925C66.3 21.925 65.9833 21.9333 65.65 21.95V26.025C65.65 26.475 65.6417 26.9 65.625 27.3C65.6083 27.7 65.5833 28.0083 65.55 28.225ZM83.5033 30C83.47 29.7667 83.445 29.575 83.4283 29.425C83.4283 29.2583 83.42 29.0667 83.4033 28.85C82.8367 29.4167 82.2367 29.8167 81.6033 30.05C80.97 30.2833 80.3283 30.4 79.6783 30.4C78.6117 30.4 77.7783 30.0833 77.1783 29.45C76.5783 28.8167 76.2783 28.025 76.2783 27.075C76.2783 26.275 76.4783 25.5917 76.8783 25.025C77.295 24.4583 77.8367 24 78.5033 23.65C79.1867 23.2833 79.9367 23.0083 80.7533 22.825C81.5867 22.625 82.42 22.5083 83.2533 22.475V21.175C83.2533 20.525 83.12 19.975 82.8533 19.525C82.6033 19.075 82.1367 18.8667 81.4533 18.9C80.7533 18.9333 80.1867 19.1667 79.7533 19.6C79.8867 19.75 79.97 19.9167 80.0033 20.1C80.0367 20.2667 80.0533 20.4167 80.0533 20.55C80.0533 20.8833 79.92 21.2333 79.6533 21.6C79.3867 21.95 78.9617 22.1167 78.3783 22.1C77.8783 22.0833 77.495 21.9083 77.2283 21.575C76.9617 21.2417 76.8283 20.85 76.8283 20.4C76.8283 19.7333 77.0617 19.1583 77.5283 18.675C78.0117 18.175 78.6533 17.7917 79.4533 17.525C80.2533 17.2417 81.1367 17.1 82.1033 17.1C83.57 17.1 84.7033 17.4833 85.5033 18.25C86.32 19 86.7283 20.2083 86.7283 21.875C86.7283 22.4417 86.7283 22.925 86.7283 23.325C86.7283 23.725 86.72 24.125 86.7033 24.525C86.7033 24.925 86.7033 25.4083 86.7033 25.975C86.7033 26.2083 86.695 26.5417 86.6783 26.975C86.6617 27.3917 86.6367 27.7917 86.6033 28.175C86.8867 28.1417 87.1867 28.125 87.5033 28.125C87.82 28.1083 88.0617 28.1 88.2283 28.1V30H83.5033ZM83.2283 24.25C82.295 24.3333 81.4867 24.575 80.8033 24.975C80.1367 25.375 79.8117 25.9333 79.8283 26.65C79.845 27.1167 79.995 27.45 80.2783 27.65C80.5617 27.85 80.8867 27.95 81.2533 27.95C81.6367 27.95 81.995 27.8667 82.3283 27.7C82.6617 27.5333 82.9617 27.3167 83.2283 27.05V24.25ZM89.7137 30V28.375C90.4137 28.375 90.8387 28.175 90.9887 27.775C91.1387 27.3583 91.2137 26.8167 91.2137 26.15V21.525C91.2137 21.2917 91.222 20.9583 91.2387 20.525C91.2553 20.0917 91.272 19.6917 91.2887 19.325L89.6887 19.4V17.5H96.0137V19.125C95.3803 19.125 94.9887 19.3333 94.8387 19.75C94.7053 20.15 94.6387 20.6833 94.6387 21.35V25.975C94.6387 26.2083 94.6303 26.525 94.6137 26.925C94.597 27.3083 94.572 27.675 94.5387 28.025H96.7387C97.4387 28.025 97.8637 27.8583 98.0137 27.525C98.1637 27.175 98.2387 26.7167 98.2387 26.15V21.525C98.2387 21.2917 98.247 20.9583 98.2637 20.525C98.2803 20.0917 98.3053 19.6917 98.3387 19.325L97.0637 19.4V17.5H103.014V19.125C102.38 19.125 101.997 19.3333 101.864 19.75C101.73 20.15 101.664 20.6833 101.664 21.35V25.975C101.664 26.2083 101.655 26.5167 101.639 26.9C101.622 27.2833 101.597 27.6583 101.564 28.025H103.764C104.464 28.025 104.889 27.8583 105.039 27.525C105.189 27.175 105.264 26.7167 105.264 26.15V21.525C105.264 21.2917 105.272 20.9583 105.289 20.525C105.305 20.0917 105.33 19.6917 105.364 19.325L104.114 19.4V17.5H110.164V19.125C109.48 19.125 109.064 19.3333 108.914 19.75C108.764 20.15 108.689 20.6833 108.689 21.35V25.975C108.689 26.2083 108.68 26.5417 108.664 26.975C108.647 27.3917 108.622 27.7917 108.589 28.175L110.214 28.1V30H89.7137ZM118.196 30.4C116.979 30.4 115.904 30.1333 114.971 29.6C114.038 29.05 113.313 28.2833 112.796 27.3C112.279 26.3 112.021 25.125 112.021 23.775C112.021 22.6083 112.279 21.5167 112.796 20.5C113.313 19.4833 114.038 18.6667 114.971 18.05C115.921 17.4167 117.021 17.1 118.271 17.1C118.971 17.1 119.654 17.2 120.321 17.4C120.988 17.5833 121.588 17.9083 122.121 18.375C122.671 18.8417 123.104 19.475 123.421 20.275C123.754 21.075 123.913 22.075 123.896 23.275L115.696 23.425C115.696 24.325 115.804 25.1333 116.021 25.85C116.254 26.5667 116.629 27.1333 117.146 27.55C117.663 27.9667 118.354 28.175 119.221 28.175C119.721 28.175 120.313 28.0417 120.996 27.775C121.696 27.4917 122.329 27 122.896 26.3L124.021 27.35C123.421 28.2 122.779 28.85 122.096 29.3C121.413 29.7333 120.729 30.025 120.046 30.175C119.379 30.325 118.763 30.4 118.196 30.4ZM115.846 21.675H120.446C120.429 20.6417 120.229 19.9167 119.846 19.5C119.463 19.0667 118.979 18.85 118.396 18.85C117.663 18.85 117.088 19.1167 116.671 19.65C116.254 20.1667 115.979 20.8417 115.846 21.675ZM132.516 30V28.35C132.899 28.3333 133.216 28.2833 133.466 28.2C133.732 28.1167 133.932 27.925 134.066 27.625C134.216 27.325 134.291 26.8417 134.291 26.175V16.6C134.291 16.15 134.299 15.7167 134.316 15.3C134.349 14.8833 134.374 14.5667 134.391 14.35C134.124 14.3667 133.791 14.3833 133.391 14.4C132.991 14.4 132.699 14.4083 132.516 14.425V12.5H149.816V14.15C149.449 14.1667 149.132 14.2167 148.866 14.3C148.599 14.3833 148.391 14.575 148.241 14.875C148.107 15.1583 148.041 15.6417 148.041 16.325V25.9C148.041 26.35 148.032 26.7833 148.016 27.2C147.999 27.6167 147.974 27.9333 147.941 28.15C148.207 28.1167 148.541 28.1 148.941 28.1C149.357 28.0833 149.649 28.075 149.816 28.075V30H142.641V28.35C143.024 28.3333 143.341 28.2833 143.591 28.2C143.857 28.1167 144.057 27.925 144.191 27.625C144.341 27.325 144.416 26.8417 144.416 26.175V14.375L139.641 14.45C139.274 14.4667 138.957 14.5167 138.691 14.6C138.441 14.6833 138.249 14.875 138.116 15.175C137.982 15.475 137.916 15.9583 137.916 16.625V25.9C137.916 26.35 137.907 26.7833 137.891 27.2C137.874 27.6167 137.849 27.9333 137.816 28.15C138.082 28.1167 138.416 28.1 138.816 28.1C139.232 28.0833 139.524 28.075 139.691 28.075V30H132.516ZM151.84 36.375V34.75C152.54 34.75 152.965 34.5417 153.115 34.125C153.265 33.725 153.34 33.1917 153.34 32.525V21.95C153.34 21.65 153.349 21.3167 153.365 20.95C153.382 20.5667 153.407 20.1917 153.44 19.825C153.174 19.8417 152.857 19.8583 152.49 19.875C152.124 19.875 151.849 19.8833 151.665 19.9V18C152.832 18 153.724 17.9167 154.34 17.75C154.957 17.5833 155.349 17.4167 155.515 17.25H156.74C156.774 17.4167 156.799 17.625 156.815 17.875C156.832 18.1083 156.849 18.3 156.865 18.45C157.449 17.95 158.024 17.6 158.59 17.4C159.174 17.2 159.724 17.1 160.24 17.1C161.24 17.1 162.115 17.3583 162.865 17.875C163.632 18.3917 164.224 19.125 164.64 20.075C165.074 21.025 165.29 22.1417 165.29 23.425C165.29 24.7583 165.032 25.9583 164.515 27.025C163.999 28.075 163.274 28.9 162.34 29.5C161.424 30.1 160.34 30.4 159.09 30.4C158.64 30.4 158.232 30.35 157.865 30.25C157.515 30.1667 157.182 30.0667 156.865 29.95V32.35C156.865 32.5833 156.857 32.9083 156.84 33.325C156.84 33.7583 156.824 34.1667 156.79 34.55C157.057 34.5167 157.349 34.4917 157.665 34.475C157.982 34.475 158.224 34.475 158.39 34.475V36.375H151.84ZM158.69 28.525C159.457 28.5083 160.049 28.2833 160.465 27.85C160.899 27.4 161.199 26.8167 161.365 26.1C161.532 25.3833 161.615 24.6167 161.615 23.8C161.615 23.0333 161.524 22.3083 161.34 21.625C161.157 20.9417 160.865 20.3917 160.465 19.975C160.065 19.5417 159.54 19.3333 158.89 19.35C158.474 19.3667 158.09 19.475 157.74 19.675C157.39 19.8583 157.099 20.1167 156.865 20.45V28.075C157.049 28.1917 157.307 28.3 157.64 28.4C157.974 28.5 158.324 28.5417 158.69 28.525ZM174.055 30C174.022 29.7667 173.997 29.575 173.98 29.425C173.98 29.2583 173.972 29.0667 173.955 28.85C173.388 29.4167 172.788 29.8167 172.155 30.05C171.522 30.2833 170.88 30.4 170.23 30.4C169.163 30.4 168.33 30.0833 167.73 29.45C167.13 28.8167 166.83 28.025 166.83 27.075C166.83 26.275 167.03 25.5917 167.43 25.025C167.847 24.4583 168.388 24 169.055 23.65C169.738 23.2833 170.488 23.0083 171.305 22.825C172.138 22.625 172.972 22.5083 173.805 22.475V21.175C173.805 20.525 173.672 19.975 173.405 19.525C173.155 19.075 172.688 18.8667 172.005 18.9C171.305 18.9333 170.738 19.1667 170.305 19.6C170.438 19.75 170.522 19.9167 170.555 20.1C170.588 20.2667 170.605 20.4167 170.605 20.55C170.605 20.8833 170.472 21.2333 170.205 21.6C169.938 21.95 169.513 22.1167 168.93 22.1C168.43 22.0833 168.047 21.9083 167.78 21.575C167.513 21.2417 167.38 20.85 167.38 20.4C167.38 19.7333 167.613 19.1583 168.08 18.675C168.563 18.175 169.205 17.7917 170.005 17.525C170.805 17.2417 171.688 17.1 172.655 17.1C174.122 17.1 175.255 17.4833 176.055 18.25C176.872 19 177.28 20.2083 177.28 21.875C177.28 22.4417 177.28 22.925 177.28 23.325C177.28 23.725 177.272 24.125 177.255 24.525C177.255 24.925 177.255 25.4083 177.255 25.975C177.255 26.2083 177.247 26.5417 177.23 26.975C177.213 27.3917 177.188 27.7917 177.155 28.175C177.438 28.1417 177.738 28.125 178.055 28.125C178.372 28.1083 178.613 28.1 178.78 28.1V30H174.055ZM173.78 24.25C172.847 24.3333 172.038 24.575 171.355 24.975C170.688 25.375 170.363 25.9333 170.38 26.65C170.397 27.1167 170.547 27.45 170.83 27.65C171.113 27.85 171.438 27.95 171.805 27.95C172.188 27.95 172.547 27.8667 172.88 27.7C173.213 27.5333 173.513 27.3167 173.78 27.05V24.25ZM180.24 30V28.375C180.69 28.3583 181.049 28.2833 181.315 28.15C181.599 28 181.74 27.5667 181.74 26.85V20.675C181.74 20.3583 181.74 20.0583 181.74 19.775C181.757 19.475 181.774 19.2417 181.79 19.075C181.59 19.0917 181.315 19.1083 180.965 19.125C180.615 19.125 180.374 19.125 180.24 19.125L180.265 17.5C181.515 17.5 182.765 17.5 184.015 17.5C185.265 17.4833 186.515 17.475 187.765 17.475C190.615 17.475 192.04 18.4667 192.04 20.45C192.04 21.1167 191.865 21.7 191.515 22.2C191.182 22.7 190.607 23.0917 189.79 23.375C190.874 23.5917 191.657 23.975 192.14 24.525C192.624 25.075 192.865 25.725 192.865 26.475C192.865 27.625 192.415 28.5 191.515 29.1C190.632 29.7 189.499 30 188.115 30H180.24ZM185.265 22.925L186.44 22.9C187.44 22.85 188.082 22.6333 188.365 22.25C188.649 21.85 188.79 21.3417 188.79 20.725C188.79 20.0417 188.59 19.5917 188.19 19.375C187.807 19.1417 187.215 19.0333 186.415 19.05C186.099 19.05 185.824 19.1167 185.59 19.25C185.374 19.3667 185.265 19.7083 185.265 20.275V22.925ZM185.115 28.3C185.499 28.3 185.915 28.3 186.365 28.3C186.832 28.3 187.199 28.2917 187.465 28.275C188.149 28.2417 188.64 28.0583 188.94 27.725C189.257 27.375 189.415 26.9333 189.415 26.4C189.415 25.65 189.19 25.1417 188.74 24.875C188.29 24.5917 187.799 24.45 187.265 24.45C186.899 24.45 186.54 24.45 186.19 24.45C185.84 24.45 185.532 24.4583 185.265 24.475V26.8C185.265 27.1 185.249 27.375 185.215 27.625C185.182 27.875 185.149 28.1 185.115 28.3ZM200.818 30.4C199.618 30.4 198.535 30.1417 197.568 29.625C196.601 29.1083 195.835 28.375 195.268 27.425C194.718 26.4583 194.443 25.325 194.443 24.025C194.443 22.6417 194.726 21.4333 195.293 20.4C195.876 19.35 196.643 18.5417 197.593 17.975C198.56 17.3917 199.61 17.1 200.743 17.1C201.943 17.1 203.018 17.3583 203.968 17.875C204.918 18.3917 205.668 19.1333 206.218 20.1C206.768 21.05 207.043 22.1917 207.043 23.525C207.043 24.925 206.776 26.1417 206.243 27.175C205.71 28.2083 204.976 29.0083 204.043 29.575C203.11 30.125 202.035 30.4 200.818 30.4ZM200.918 28.625C201.585 28.6083 202.085 28.375 202.418 27.925C202.768 27.475 203.01 26.9083 203.143 26.225C203.276 25.5417 203.343 24.85 203.343 24.15C203.343 23.5333 203.293 22.9083 203.193 22.275C203.11 21.6417 202.968 21.0667 202.768 20.55C202.568 20.0333 202.293 19.6167 201.943 19.3C201.61 18.9833 201.193 18.8333 200.693 18.85C200.043 18.8667 199.526 19.1 199.143 19.55C198.776 20 198.51 20.5667 198.343 21.25C198.193 21.9167 198.118 22.6167 198.118 23.35C198.118 24.2 198.21 25.0333 198.393 25.85C198.576 26.6667 198.868 27.3417 199.268 27.875C199.685 28.3917 200.235 28.6417 200.918 28.625Z" fill="white"/>
<path d="M66.5059 48H65.375V40.3945H61.168V48H60.043V39.4688H66.5059V48ZM73.7422 44.9004C73.7422 45.8652 73.5215 46.6426 73.0801 47.2324C72.6387 47.8223 72.041 48.1172 71.2871 48.1172C70.5176 48.1172 69.9121 47.873 69.4707 47.3848V50.4375H68.3867V41.6602H69.377L69.4297 42.3633C69.8711 41.8164 70.4844 41.543 71.2695 41.543C72.0312 41.543 72.6328 41.8301 73.0742 42.4043C73.5195 42.9785 73.7422 43.7773 73.7422 44.8008V44.9004ZM72.6582 44.7773C72.6582 44.0625 72.5059 43.498 72.2012 43.084C71.8965 42.6699 71.4785 42.4629 70.9473 42.4629C70.291 42.4629 69.7988 42.7539 69.4707 43.3359V46.3652C69.7949 46.9434 70.291 47.2324 70.959 47.2324C71.4785 47.2324 71.8906 47.0273 72.1953 46.6172C72.5039 46.2031 72.6582 45.5898 72.6582 44.7773ZM79.0391 48C78.9766 47.875 78.9258 47.6523 78.8867 47.332C78.3828 47.8555 77.7812 48.1172 77.082 48.1172C76.457 48.1172 75.9434 47.9414 75.541 47.5898C75.1426 47.2344 74.9434 46.7852 74.9434 46.2422C74.9434 45.582 75.1934 45.0703 75.6934 44.707C76.1973 44.3398 76.9043 44.1562 77.8145 44.1562H78.8691V43.6582C78.8691 43.2793 78.7559 42.9785 78.5293 42.7559C78.3027 42.5293 77.9688 42.416 77.5273 42.416C77.1406 42.416 76.8164 42.5137 76.5547 42.709C76.293 42.9043 76.1621 43.1406 76.1621 43.418H75.0723C75.0723 43.1016 75.1836 42.7969 75.4062 42.5039C75.6328 42.207 75.9375 41.9727 76.3203 41.8008C76.707 41.6289 77.1309 41.543 77.5918 41.543C78.3223 41.543 78.8945 41.7266 79.3086 42.0938C79.7227 42.457 79.9375 42.959 79.9531 43.5996V46.5176C79.9531 47.0996 80.0273 47.5625 80.1758 47.9062V48H79.0391ZM77.2402 47.1738C77.5801 47.1738 77.9023 47.0859 78.207 46.9102C78.5117 46.7344 78.7324 46.5059 78.8691 46.2246V44.9238H78.0195C76.6914 44.9238 76.0273 45.3125 76.0273 46.0898C76.0273 46.4297 76.1406 46.6953 76.3672 46.8867C76.5938 47.0781 76.8848 47.1738 77.2402 47.1738ZM81.752 48V41.6602H84.2246C85.0684 41.6602 85.7148 41.8086 86.1641 42.1055C86.6172 42.3984 86.8438 42.8301 86.8438 43.4004C86.8438 43.6934 86.7559 43.959 86.5801 44.1973C86.4043 44.4316 86.1445 44.6113 85.8008 44.7363C86.1836 44.8262 86.4902 45.002 86.7207 45.2637C86.9551 45.5254 87.0723 45.8379 87.0723 46.2012C87.0723 46.7832 86.8574 47.2285 86.4277 47.5371C86.002 47.8457 85.3984 48 84.6172 48H81.752ZM82.8359 45.2168V47.127H84.6289C85.082 47.127 85.4199 47.043 85.6426 46.875C85.8691 46.707 85.9824 46.4707 85.9824 46.166C85.9824 45.5332 85.5176 45.2168 84.5879 45.2168H82.8359ZM82.8359 44.3496H84.2363C85.252 44.3496 85.7598 44.0527 85.7598 43.459C85.7598 42.8652 85.2793 42.5586 84.3184 42.5391H82.8359V44.3496ZM88.2207 44.7715C88.2207 44.1504 88.3418 43.5918 88.584 43.0957C88.8301 42.5996 89.1699 42.2168 89.6035 41.9473C90.041 41.6777 90.5391 41.543 91.0977 41.543C91.9609 41.543 92.6582 41.8418 93.1895 42.4395C93.7246 43.0371 93.9922 43.832 93.9922 44.8242V44.9004C93.9922 45.5176 93.873 46.0723 93.6348 46.5645C93.4004 47.0527 93.0625 47.4336 92.6211 47.707C92.1836 47.9805 91.6797 48.1172 91.1094 48.1172C90.25 48.1172 89.5527 47.8184 89.0176 47.2207C88.4863 46.623 88.2207 45.832 88.2207 44.8477V44.7715ZM89.3105 44.9004C89.3105 45.6035 89.4727 46.168 89.7969 46.5938C90.125 47.0195 90.5625 47.2324 91.1094 47.2324C91.6602 47.2324 92.0977 47.0176 92.4219 46.5879C92.7461 46.1543 92.9082 45.5488 92.9082 44.7715C92.9082 44.0762 92.7422 43.5137 92.4102 43.084C92.082 42.6504 91.6445 42.4336 91.0977 42.4336C90.5625 42.4336 90.1309 42.6465 89.8027 43.0723C89.4746 43.498 89.3105 44.1074 89.3105 44.9004ZM95.4512 48V41.6602H97.9238C98.7676 41.6602 99.4141 41.8086 99.8633 42.1055C100.316 42.3984 100.543 42.8301 100.543 43.4004C100.543 43.6934 100.455 43.959 100.279 44.1973C100.104 44.4316 99.8438 44.6113 99.5 44.7363C99.8828 44.8262 100.189 45.002 100.42 45.2637C100.654 45.5254 100.771 45.8379 100.771 46.2012C100.771 46.7832 100.557 47.2285 100.127 47.5371C99.7012 47.8457 99.0977 48 98.3164 48H95.4512ZM96.5352 45.2168V47.127H98.3281C98.7812 47.127 99.1191 47.043 99.3418 46.875C99.5684 46.707 99.6816 46.4707 99.6816 46.166C99.6816 45.5332 99.2168 45.2168 98.2871 45.2168H96.5352ZM96.5352 44.3496H97.9355C98.9512 44.3496 99.459 44.0527 99.459 43.459C99.459 42.8652 98.9785 42.5586 98.0176 42.5391H96.5352V44.3496ZM101.92 44.7715C101.92 44.1504 102.041 43.5918 102.283 43.0957C102.529 42.5996 102.869 42.2168 103.303 41.9473C103.74 41.6777 104.238 41.543 104.797 41.543C105.66 41.543 106.357 41.8418 106.889 42.4395C107.424 43.0371 107.691 43.832 107.691 44.8242V44.9004C107.691 45.5176 107.572 46.0723 107.334 46.5645C107.1 47.0527 106.762 47.4336 106.32 47.707C105.883 47.9805 105.379 48.1172 104.809 48.1172C103.949 48.1172 103.252 47.8184 102.717 47.2207C102.186 46.623 101.92 45.832 101.92 44.8477V44.7715ZM103.01 44.9004C103.01 45.6035 103.172 46.168 103.496 46.5938C103.824 47.0195 104.262 47.2324 104.809 47.2324C105.359 47.2324 105.797 47.0176 106.121 46.5879C106.445 46.1543 106.607 45.5488 106.607 44.7715C106.607 44.0762 106.441 43.5137 106.109 43.084C105.781 42.6504 105.344 42.4336 104.797 42.4336C104.262 42.4336 103.83 42.6465 103.502 43.0723C103.174 43.498 103.01 44.1074 103.01 44.9004ZM113.152 41.6602H114.236V48H113.152V43.377L110.229 48H109.145V41.6602H110.229V46.2891L113.152 41.6602ZM113.445 39.3516C113.445 39.8242 113.283 40.2051 112.959 40.4941C112.639 40.7793 112.217 40.9219 111.693 40.9219C111.17 40.9219 110.746 40.7773 110.422 40.4883C110.098 40.1992 109.936 39.8203 109.936 39.3516H110.82C110.82 39.625 110.895 39.8398 111.043 39.9961C111.191 40.1484 111.408 40.2246 111.693 40.2246C111.967 40.2246 112.18 40.1484 112.332 39.9961C112.488 39.8438 112.566 39.6289 112.566 39.3516H113.445ZM119.047 41.6602H120.137V47.1152H123.055V41.6602H124.139V47.1152H124.895L124.789 49.8809H123.816V48H119.047V41.6602ZM128.697 48.1172C127.838 48.1172 127.139 47.8359 126.6 47.2734C126.061 46.707 125.791 45.9512 125.791 45.0059V44.8066C125.791 44.1777 125.91 43.6172 126.148 43.125C126.391 42.6289 126.727 42.2422 127.156 41.9648C127.59 41.6836 128.059 41.543 128.562 41.543C129.387 41.543 130.027 41.8145 130.484 42.3574C130.941 42.9004 131.17 43.6777 131.17 44.6895V45.1406H126.875C126.891 45.7656 127.072 46.2715 127.42 46.6582C127.771 47.041 128.217 47.2324 128.756 47.2324C129.139 47.2324 129.463 47.1543 129.729 46.998C129.994 46.8418 130.227 46.6348 130.426 46.377L131.088 46.8926C130.557 47.709 129.76 48.1172 128.697 48.1172ZM128.562 42.4336C128.125 42.4336 127.758 42.5938 127.461 42.9141C127.164 43.2305 126.98 43.6758 126.91 44.25H130.086V44.168C130.055 43.6172 129.906 43.1914 129.641 42.8906C129.375 42.5859 129.016 42.4336 128.562 42.4336ZM137.609 48H136.525V45.293H133.613V48H132.523V41.6602H133.613V44.4082H136.525V41.6602H137.609V48ZM144.066 42.5391H141.939V48H140.855V42.5391H138.77V41.6602H144.066V42.5391ZM150.477 44.9004C150.477 45.8652 150.256 46.6426 149.814 47.2324C149.373 47.8223 148.775 48.1172 148.021 48.1172C147.252 48.1172 146.646 47.873 146.205 47.3848V50.4375H145.121V41.6602H146.111L146.164 42.3633C146.605 41.8164 147.219 41.543 148.004 41.543C148.766 41.543 149.367 41.8301 149.809 42.4043C150.254 42.9785 150.477 43.7773 150.477 44.8008V44.9004ZM149.393 44.7773C149.393 44.0625 149.24 43.498 148.936 43.084C148.631 42.6699 148.213 42.4629 147.682 42.4629C147.025 42.4629 146.533 42.7539 146.205 43.3359V46.3652C146.529 46.9434 147.025 47.2324 147.693 47.2324C148.213 47.2324 148.625 47.0273 148.93 46.6172C149.238 46.2031 149.393 45.5898 149.393 44.7773Z" fill="#C8C8C8"/>
<path d="M1.0708 28.2705V44.5279L22.4355 50.9999L42.7179 44.5279V39.094" stroke="white" stroke-width="1.43094"/>
<mask id="mask0" style="mask-type:alpha" maskUnits="userSpaceOnUse" x="1" y="-2" width="50" height="53">
<path d="M1.0708 44.528V-2H50.2943V44.528H42.7179L22.4355 51L1.0708 44.528Z" fill="#C4C4C4"/>
</mask>
<g mask="url(#mask0)">
<path fill-rule="evenodd" clip-rule="evenodd" d="M29.2638 21.4367L33.5366 18.6947V2.66191C33.5366 2.54766 33.8305 2.08494 34.0985 1.94556C34.3406 2.09294 34.5945 2.49396 34.5945 2.66191V18.0092L38.9626 15.1986C39.796 14.6571 39.3905 15.9984 38.8709 16.3411L34.5969 19.0888V22.0262C34.5969 22.193 34.343 22.5975 34.1008 22.7426C33.8328 22.6032 33.539 22.1382 33.539 22.0262V19.7686L29.2967 22.4969C27.9919 23.3447 28.4786 21.9485 29.2638 21.4367Z" fill="white"/>
<path fill-rule="evenodd" clip-rule="evenodd" d="M40.5778 27.1458C39.7302 26.9356 37.7754 26.9311 36.9232 27.1276L38.7088 17.2335L38.7993 17.1912L40.5778 27.1458ZM41.209 28.2986C41.4876 28.093 41.6792 27.8496 41.6498 27.5926C41.3442 24.9934 39.4904 18.3668 38.8533 15.7402L38.6676 15.8259C38.342 17.1489 35.7454 27.1641 35.8112 27.5937C35.8112 27.9125 36.0581 28.2038 36.466 28.4323C36.9973 28.7682 37.8119 28.9876 38.784 28.9681C40.0265 28.9464 40.7893 28.6802 41.209 28.2986Z" fill="white"/>
<path fill-rule="evenodd" clip-rule="evenodd" d="M32.0572 32.4289C31.1944 32.2152 29.3066 32.2107 28.4403 32.4106L30.2035 22.3406L30.2952 22.2983L32.0584 32.4289H32.0572ZM32.7495 33.6022C33.034 33.3943 33.2291 33.1452 33.1986 32.8847C32.8882 30.2387 31.0004 23.4945 30.3527 20.821L30.1647 20.909C29.8332 22.256 27.1896 32.4483 27.2566 32.8882C27.2566 33.2115 27.5081 33.5085 27.9231 33.7416C28.4638 34.0844 29.2936 34.3072 30.2822 34.2866C31.547 34.2615 32.3228 33.9907 32.7495 33.6022Z" fill="white"/>
<path fill-rule="evenodd" clip-rule="evenodd" d="M17.782 10.1536C18.9187 9.74118 20.1236 9.44641 21.265 9.43499C22.1842 9.42699 23.1022 9.6989 24.0109 10.0062L23.5947 11.271C21.895 11.0356 20.4351 11.0116 18.0783 11.5315L17.782 10.1536Z" fill="white"/>
<path fill-rule="evenodd" clip-rule="evenodd" d="M17.0991 11.4285C17.9125 11.5862 17.815 12.5025 17.3271 13.0075C15.8131 14.5784 16.5114 15.6352 18.3451 15.0822C17.2237 16.0545 16.0365 15.6535 16.0106 14.7806C15.9789 13.7055 16.6994 13.3559 17.1391 12.7984C17.3953 12.4739 17.6669 12.0409 17.0991 11.4274V11.4285ZM17.085 9.84615C17.1615 10.1471 17.2686 10.4398 17.4047 10.7202L17.3601 10.6996C16.4714 10.9064 16.2128 11.9826 16.4197 12.8418C15.283 13.6118 14.9633 14.8446 15.9354 15.8774C16.2704 16.2339 16.8052 16.3893 17.2919 16.3893C18.3345 16.3893 18.7236 15.1931 19.048 14.527C19.4806 13.6393 17.5376 11.328 18.291 9.88728C18.6954 9.21777 19.376 8.79962 19.9367 8.45572C20.4069 8.16895 20.7877 7.30294 20.8771 7.00817C21.0534 7.17955 21.3167 8.06042 21.62 8.22722C21.7446 8.29463 21.8844 8.36204 22.0325 8.43402C22.8707 8.83846 23.2186 9.00527 23.4878 9.5114C23.811 10.1169 23.7452 10.5991 23.5853 11.176C23.3303 12.0763 22.9729 12.9743 22.3346 13.5319C22.3252 13.6096 22.297 13.3982 22.297 13.9969C22.297 14.5955 23.1434 16.0191 24.186 16.0191C25.2286 16.0191 26.0738 15.1131 26.0738 13.9969C26.0782 13.6624 25.9992 13.3318 25.8436 13.0334C25.6881 12.7349 25.4605 12.4775 25.1805 12.2831C25.2107 12.1592 25.2261 12.0323 25.2263 11.9049C25.2316 11.6221 25.155 11.3436 25.0051 11.1011C24.8552 10.8587 24.6382 10.6621 24.3788 10.5339C24.4609 10.3968 24.5343 10.2548 24.5986 10.1089C24.7647 9.70481 24.84 9.27088 24.8196 8.83618C24.8071 8.57679 24.7593 8.32015 24.6774 8.07298C24.6315 7.93588 24.5751 7.17269 24.5069 7.04473C24.1696 6.42539 23.6558 5.91368 23.027 5.5709C22.3817 5.21558 21.5671 4.99965 20.8959 5.41323C20.4462 5.23764 19.9538 5.1924 19.4783 5.28299C19.0402 5.37306 18.6317 5.5665 18.2887 5.84624C17.3083 6.62772 17.547 7.01731 17.1967 8.05128C16.9971 8.63191 16.9593 9.25359 17.0873 9.853L17.085 9.84615ZM24.2307 10.6882C24.9806 11.6456 24.0191 12.4316 23.9732 12.9378C23.9497 13.2005 24.1002 13.2874 24.2824 13.3136C26.7861 13.669 25.4884 15.5987 24.8137 15.2456C24.8478 15.2456 25.1593 15.1062 25.2463 14.9177C25.8223 13.661 23.744 14.094 23.583 13.2851C23.5455 13.0787 23.5696 12.8662 23.6523 12.6727C23.9932 11.9129 24.6785 11.4708 24.2236 10.6996L24.2307 10.6882ZM20.9017 5.83025C21.5165 7.32464 22.2524 8.10383 23.7675 8.77791C22.7155 8.52656 21.1204 7.77251 20.9017 5.83025ZM20.3986 6.93733C20.3316 8.25578 17.8843 9.12409 17.6516 9.07153C18.7806 8.66747 19.7444 7.91866 20.3986 6.93733Z" fill="white"/>
<path fill-rule="evenodd" clip-rule="evenodd" d="M24.3101 29.7087C25.7006 34.257 25.9287 38.9447 26.0979 40.8287C26.5411 38.4614 26.4235 35.5115 25.8852 32.3605C26.4424 34.2913 27.2217 36.4381 27.0207 38.8362C26.3471 46.8463 25.107 53.9298 24.5275 61.7571C24.3453 64.2318 24.504 68.034 25.8723 71.0674C25.2927 67.4868 25.4232 62.1238 25.8299 59.1511C26.4929 54.3103 28.2079 43.613 27.9693 38.5072C27.7601 34.0045 25.6854 29.9772 26.1732 27.0604C25.7103 27.657 25.4354 28.3714 25.3821 29.1169V29.0541C24.3394 28.3686 20.3052 27.7322 17.7204 29.0084C17.8015 28.5311 17.8541 28.0497 17.8779 27.5665C19.7398 26.8148 20.9929 25.8082 21.9638 24.5355C22.1143 24.5183 22.2647 24.5023 22.4128 24.4886C21.7487 26.3521 20.2805 27.1541 20.0995 27.338C20.4827 27.4203 23.3497 27.394 25.3974 24.4166C25.9156 24.2179 26.3677 23.8848 26.7045 23.4535C26.5305 24.4818 26.3213 25.3032 26.3918 25.2552C27.3392 24.3938 27.8976 21.589 28.0598 20.8178C30.1756 17.3183 33.2836 16.1472 34.9845 14.7693C36.5584 13.4943 37.989 6.12059 36.0694 2.2098C35.9099 1.75203 35.6714 1.32396 35.3642 0.943909C35.0926 0.601158 34.7682 0.0733214 34.0935 0.0299063C33.3437 -0.0279073 32.5896 -0.0018398 31.846 0.107597C30.5377 0.32353 32.1304 3.46542 32.3749 3.61623C32.8745 3.17522 31.6697 0.994179 32.3808 0.933627C33.8725 0.806809 34.4908 0.921059 34.7318 1.28552C35.3301 2.18238 35.899 3.29175 36.0659 4.35657C36.5714 7.57729 35.1255 13.7114 34.5131 14.0267C33.9865 14.2975 33.2624 14.7853 32.7088 15.0413C30.8962 15.881 27.8647 18.8241 26.554 20.411C27.0242 21.5535 26.7973 22.6481 25.998 23.3233C25.0012 24.1664 23.2944 24.0716 22.0367 23.1736C22.4804 22.4929 22.8357 21.7615 23.0946 20.996C22.5563 21.5478 22.1542 22.3761 21.5595 22.9965C21.0152 23.5678 19.4859 24.5777 17.7486 23.786C15.9137 22.9485 16.1723 19.9689 15.5364 19.5496L15.5246 19.5427C15.4976 21.2565 15.1167 23.9105 14.5913 24.6463C13.7626 25.8082 12.4143 27.3209 11.5409 28.853C11.4884 29.9093 11.2769 30.9524 10.9132 31.9492C10.4039 33.2399 9.826 34.5041 9.18177 35.7366C8.69043 36.6894 8.15676 37.7063 7.55375 38.5986C6.40296 40.4791 7.67129 41.9952 7.7524 42.1963C8.22259 40.9304 7.12588 39.9856 7.86172 38.8499C8.44945 37.945 9.10066 37.2161 9.73307 36.1456C10.9934 34.0167 12.0073 31.7586 12.7564 29.4128C13.3899 27.3906 14.7935 25.9293 15.5704 25.0519C16.3792 24.1379 16.3416 24.6349 16.5567 25.4529C17.2725 28.1663 17.3137 29.2026 16.8176 30.2617C16.5602 30.7587 15.8855 31.924 15.4564 32.5993C12.9198 36.598 13.6462 43.3674 14.2551 48.167C15.0779 54.6702 18.7795 66.4208 16.8317 72.5366C22.3964 71.3941 21.9591 68.7447 22.9136 58.5227L19.8844 64.5391C21.5794 59.0631 22.5974 54.4645 22.8313 50.8839C20.9988 56.9186 20.0807 58.5112 18.7066 62.3249C19.942 58.2827 21.2127 55.8595 22.1954 48.7451C21.5254 41.8753 22.3235 39.2829 23.9304 34.4558C23.2448 36.1425 22.3884 37.7587 21.3737 39.2806C20.9459 39.9101 19.8362 42.3494 19.7586 42.9583C19.5177 38.6168 23.673 34.5758 21.5218 29.8515C21.295 35.6783 16.6002 39.2201 16.532 46.379L15.9877 43.3434C15.8702 39.2052 18.1353 33.4516 19.8127 29.671C17.6463 31.1277 15.4212 35.3687 14.442 39.7251C14.4244 37.8731 14.9216 35.9662 15.6598 34.2502C16.4826 32.3353 17.0621 30.9655 17.423 29.9795C19.0898 29.4322 21.9767 29.2449 24.3101 29.7019V29.7087ZM21.0164 12.4569C21.1023 12.4314 21.1911 12.416 21.2809 12.4112C21.3773 12.4063 21.474 12.4156 21.5677 12.4386C21.7314 12.4804 21.8854 12.5521 22.0214 12.65C21.9097 12.7288 21.9039 12.8031 21.7334 12.7151C21.6094 12.6454 21.4688 12.6084 21.3255 12.6077C21.1826 12.6109 21.0424 12.6469 20.9165 12.7128C20.7202 12.8077 20.7296 12.778 20.6238 12.6409C20.7456 12.5628 20.8777 12.5009 21.0164 12.4569ZM22.3694 13.7959C22.0614 14.05 21.673 14.1936 21.2691 14.2027C20.6602 14.2084 20.0313 13.8599 19.3884 13.1801C20.391 13.7925 20.6814 13.8759 20.8542 13.9045C21.0098 13.9263 21.1671 13.9355 21.3244 13.9319C21.9544 13.917 22.2118 13.5446 22.6174 13.1024C23.0735 12.602 23.3497 12.3118 23.5695 11.6172C23.5766 12.3027 23.3121 12.6911 22.8983 13.2075V13.2909C22.7922 13.7792 22.7402 14.2772 22.7432 14.7762C22.8442 15.8376 24.0667 15.8593 24.9519 15.7599C25.4938 15.3383 26.078 15.0458 26.6375 14.7316C27.9763 13.9844 31.4181 13.3869 31.9635 12.8705C32.8475 12.3849 34.2475 6.79239 33.5422 2.82561C33.5304 2.85189 33.9348 2.10926 34.1934 2.84846C35.0538 5.31741 33.6245 12.153 32.1387 13.1424C30.5283 14.109 28.2173 14.2324 23.7576 17.1046C24.026 16.6496 24.3713 16.2417 24.7791 15.8981C23.968 16.1449 22.9171 16.0124 22.494 15.4537C22.2013 15.0653 22.2835 14.2826 22.3764 13.7902L22.3694 13.7959ZM5.98567 38.899C5.86813 39.0853 5.13228 39.7788 5.01944 39.989C4.85605 40.6573 4.73732 41.2971 5.10877 42.2808C5.21574 42.563 5.66595 42.5699 6.28424 42.5093C6.58399 42.4796 7.55963 42.3368 7.51026 42.0992C7.73242 42.114 7.73712 42.4019 7.65249 42.587C7.35274 43.2314 5.30155 43.3182 4.96184 43.044C4.08376 42.3277 4.12726 40.8196 4.55513 39.5445C4.72557 39.3103 5.26864 38.9196 5.36738 38.7334C5.65184 38.1895 6.00918 36.7306 6.21606 35.9914C6.75443 34.0502 8.28254 28.4965 9.19235 27.5071C11.7231 24.7571 11.8101 19.9106 13.3359 18.1957C14.0623 17.4085 15.4705 17.1069 16.5637 16.6739C18.7971 15.7873 19.0733 15.2092 18.5514 12.971C18.8499 13.3707 19.0651 13.8233 19.185 14.3032C19.3719 15.1258 19.1639 15.9541 18.3622 16.6682C18.0093 16.9667 17.5907 17.1824 17.1385 17.2989C17.2408 17.3183 17.3431 17.3388 17.443 17.3628C18.6854 17.6553 19.8151 17.9489 21.0869 18.1911L25.9428 17.0715L21.429 19.0138C20.9588 19.2148 19.3766 18.6413 18.515 18.3031C18.0272 18.1409 17.5499 17.9421 17.0527 17.8175L21.4113 20.531L18.12 19.4193C17.6722 19.2765 16.3768 18.5385 15.2989 17.8324C15.1694 17.8731 15.0426 17.9215 14.9192 17.9775C14.6347 18.1205 14.372 18.3012 14.1387 18.5145C12.0476 20.6715 12.2321 25.0919 10.0704 27.7368C9.74247 28.3823 9.31107 29.1021 8.84676 29.8607C7.99572 31.25 7.39271 33.5841 6.92722 35.5469C6.87198 35.7743 6.02446 38.8339 5.98567 38.899Z" fill="white"/>
<path fill-rule="evenodd" clip-rule="evenodd" d="M11.3521 43.7149L11.3439 43.9434C9.72877 43.788 8.08194 43.708 6.46685 43.5538L-1.01266 75.9289C-1.21601 76.8429 -2.88165 79.2284 -4.6284 82.047C-4.92697 79.4798 -5.15266 76.1631 -4.87172 75.4353L4.25344 43.1905C2.87697 42.1508 1.33358 41.8697 -0.0417204 40.8312L-0.0193868 40.6084L11.3521 43.7183V43.7149ZM4.86586 43.6783L3.01685 49.3006L-3.24722 72.5299C-3.90313 74.9623 -3.93135 78.3944 -3.8667 79.9859L0.296814 61.4991L5.32547 43.836L4.86586 43.6783Z" fill="white"/>
</g>
</svg>
