<?xml version="1.0" encoding="UTF-8" standalone="no"?>
<svg
   fill="none"
   viewBox="2.04 8.13 68.92 56.75"
   version="1.1"
   id="svg10"
   sodipodi:docname="people.svg"
   inkscape:version="1.1 (c68e22c387, 2021-05-23)"
   xmlns:inkscape="http://www.inkscape.org/namespaces/inkscape"
   xmlns:sodipodi="http://sodipodi.sourceforge.net/DTD/sodipodi-0.dtd"
   xmlns="http://www.w3.org/2000/svg"
   xmlns:svg="http://www.w3.org/2000/svg">
  <defs
     id="defs14" />
  <sodipodi:namedview
     id="namedview12"
     pagecolor="#ffffff"
     bordercolor="#666666"
     borderopacity="1.0"
     inkscape:pageshadow="2"
     inkscape:pageopacity="0.0"
     inkscape:pagecheckerboard="0"
     showgrid="false"
     inkscape:zoom="7.3392071"
     inkscape:cx="27.727791"
     inkscape:cy="33.791116"
     inkscape:window-width="1920"
     inkscape:window-height="1011"
     inkscape:window-x="0"
     inkscape:window-y="32"
     inkscape:window-maximized="1"
     inkscape:current-layer="svg10" />
  <path
     d="M69.9583 63.8747V57.7914C69.9563 55.0956 69.0591 52.4769 67.4075 50.3463C65.7559 48.2158 63.4435 46.6941 60.8333 46.0201"
     stroke="black"
     stroke-width="2"
     stroke-linecap="round"
     stroke-linejoin="round"
     id="path2"
     style="fill:none;fill-opacity:1" />
  <path
     d="M51.7084 63.875V57.7917C51.7084 54.5649 50.4265 51.4702 48.1448 49.1885C45.8631 46.9068 42.7685 45.625 39.5417 45.625H15.2084C11.9816 45.625 8.88691 46.9068 6.60522 49.1885C4.32353 51.4702 3.04169 54.5649 3.04169 57.7917V63.875"
     stroke="black"
     stroke-width="2"
     stroke-linecap="round"
     stroke-linejoin="round"
     id="path4"
     style="fill:#ffffff;fill-opacity:0.98332566" />
  <path
     d="M48.6667 9.52014C51.2838 10.1902 53.6034 11.7123 55.2599 13.8463C56.9164 15.9804 57.8155 18.6051 57.8155 21.3066C57.8155 24.0081 56.9164 26.6328 55.2599 28.7669C53.6034 30.9009 51.2838 32.423 48.6667 33.0931"
     stroke="black"
     stroke-width="2"
     stroke-linecap="round"
     stroke-linejoin="round"
     id="path6"
     style="fill:#f9f9f9;fill-opacity:1" />
  <path
     d="M27.375 33.4583C34.0945 33.4583 39.5417 28.0111 39.5417 21.2917C39.5417 14.5722 34.0945 9.125 27.375 9.125C20.6555 9.125 15.2083 14.5722 15.2083 21.2917C15.2083 28.0111 20.6555 33.4583 27.375 33.4583Z"
     stroke="black"
     stroke-width="2"
     stroke-linecap="round"
     stroke-linejoin="round"
     id="path8"
     style="fill:#ffffff;fill-opacity:1" />
</svg>
