<?xml version="1.0" encoding="UTF-8" standalone="no"?>
<svg
   width="14"
   height="14"
   fill="none"
   version="1.1"
   id="svg4"
   sodipodi:docname="phone.svg"
   inkscape:version="1.1 (c68e22c387, 2021-05-23)"
   xmlns:inkscape="http://www.inkscape.org/namespaces/inkscape"
   xmlns:sodipodi="http://sodipodi.sourceforge.net/DTD/sodipodi-0.dtd"
   xmlns="http://www.w3.org/2000/svg"
   xmlns:svg="http://www.w3.org/2000/svg">
  <defs
     id="defs8" />
  <sodipodi:namedview
     id="namedview6"
     pagecolor="#ffffff"
     bordercolor="#666666"
     borderopacity="1.0"
     inkscape:pageshadow="2"
     inkscape:pageopacity="0.0"
     inkscape:pagecheckerboard="0"
     showgrid="false"
     inkscape:zoom="59.5"
     inkscape:cx="7"
     inkscape:cy="7.0084034"
     inkscape:window-width="1920"
     inkscape:window-height="1011"
     inkscape:window-x="0"
     inkscape:window-y="32"
     inkscape:window-maximized="1"
     inkscape:current-layer="svg4" />
  <path
     d="M2.43 1.838a.573.573 0 00-.553.608c.076 1.312.437 4.515 2.165 6.512 2.07 2.406 4.765 3.235 7.53 3.113a.587.587 0 00.551-.58V9.389a.875.875 0 00-.676-.845l-1.385-.306a.875.875 0 00-.91.37l-.306.464a.219.219 0 01-.267.08c-.704-.304-3.51-1.616-3.82-3.83a.219.219 0 01.106-.219l.556-.339a.875.875 0 00.396-.92l-.305-1.41a.875.875 0 00-.875-.682l-2.207.086z"
     stroke="#C17400"
     id="path2"
     style="stroke:#ffffff;stroke-opacity:1" />
</svg>
